<svg width="134" height="66" fill="none" xmlns="http://www.w3.org/2000/svg"><path d="M1.4 37V12.4h3.06V23.1h3.17v3H4.46V37H1.41ZM9.4 26.1v-2.99h3.13V12.4h3.09V37h-3.1V26.1H9.4Zm8.96 5.7V23.1c0-1.1.5-2.18 1.48-3.23a6.08 6.08 0 0 1 4.57-1.9v2.85c-1.38 0-2.35.57-2.88 1.72-.17.35-.25.7-.25 1.06v7.73c0 .87.4 1.6 1.2 2.21.56.43 1.2.64 1.93.64v2.85c-2.23 0-3.95-.9-5.17-2.71a4.65 4.65 0 0 1-.88-2.53Zm7.56 5.24v-2.85c1.24 0 2.13-.56 2.67-1.69.19-.38.28-.74.28-1.09v-7.8c0-.97-.4-1.73-1.23-2.29a3.2 3.2 0 0 0-1.75-.5v-2.84c2.15 0 3.82.88 4.99 2.64.58.86.88 1.7.88 2.5v8.68c0 1.15-.5 2.26-1.48 3.34a5.8 5.8 0 0 1-4.36 1.9Zm8.5-5.1V18.02h3v13.57c0 .84.42 1.54 1.26 2.1.56.36 1.19.53 1.87.53v2.96a5.96 5.96 0 0 1-5.2-2.64c-.62-.9-.92-1.76-.92-2.6Zm7.67 5.24v-2.96c1.27 0 2.2-.5 2.78-1.5.21-.38.32-.76.32-1.13V18.02h2.98v13.92c0 1.1-.5 2.19-1.5 3.27a6.14 6.14 0 0 1-4.58 1.97ZM50.2 32l2.78-.53c0 1.06.55 1.89 1.65 2.5.54.25 1.06.4 1.55.42v2.78c-2.27 0-3.97-.82-5.1-2.47a4.77 4.77 0 0 1-.88-2.7Zm.18-8.65c0-2.13.97-3.72 2.92-4.75a6 6 0 0 1 2.8-.73v2.74c-1.07 0-1.9.44-2.49 1.33-.3.45-.45.92-.45 1.4 0 .76.58 1.37 1.75 1.84.9.37 2.62.86 5.17 1.47a4.73 4.73 0 0 1 3.41 2.36c.35.66.53 1.4.53 2.21 0 2.25-.9 3.92-2.7 5a6.9 6.9 0 0 1-3.63.95V34.4c1.08 0 1.98-.38 2.7-1.13.52-.54.78-1.17.78-1.9 0-.93-.92-1.68-2.78-2.25-.46-.14-1.21-.33-2.25-.6-1.1-.25-1.9-.46-2.39-.63-1.78-.7-2.86-1.77-3.23-3.2-.1-.42-.14-.86-.14-1.33Zm7.28-2.7v-2.79c2.01 0 3.64.75 4.88 2.25a4.76 4.76 0 0 1 1.16 3.03l-2.77.46c0-1.3-.7-2.2-2.11-2.71-.43-.17-.81-.25-1.16-.25Zm8.43 11.14v-8.72a4.83 4.83 0 0 1 1.55-3.2 6.1 6.1 0 0 1 4.43-1.9v2.78c-1.12 0-2 .49-2.64 1.47-.25.43-.38.81-.38 1.16v2.4h7.87v-2.4c0-1.05-.54-1.82-1.62-2.32-.49-.23-1-.35-1.5-.35v-2.74c1.61 0 3.05.57 4.32 1.72 1.05 1.01 1.6 2.12 1.61 3.34v5.6H69.05v3.16c0 .65.37 1.26 1.12 1.82.61.43 1.26.64 1.94.64V37c-2.14 0-3.81-.87-5.03-2.6a4.52 4.52 0 0 1-.99-2.6Zm7.7 5.2v-2.78c1.4 0 2.46-.6 3.17-1.83.14-.25.24-.5.31-.73l2.5.91a5.64 5.64 0 0 1-2.88 3.66c-.96.51-2 .77-3.1.77Zm7.7-24.6h3.1l6.25 21.37L89.72 37h-1.1L81.5 12.4Zm8.58 13.03 4.36-13.04h3.1l-2.64 8.16-3.1 9.52h-.35l-1.37-4.64Zm9.14 4.71V18.58c0-1.24.53-2.51 1.58-3.8a6.76 6.76 0 0 1 5.35-2.57v3.06c-1.43 0-2.55.73-3.34 2.18-.33.64-.5 1.2-.5 1.7v11c0 1.47.73 2.62 2.18 3.44.61.35 1.15.53 1.62.53v3.06a6.84 6.84 0 0 1-4-1.45 6.71 6.71 0 0 1-2.89-5.59Zm8.83 7.04v-3.06c.81 0 1.65-.37 2.5-1.1.88-.79 1.34-1.75 1.36-2.88v-11c0-.91-.37-1.8-1.12-2.64a3.82 3.82 0 0 0-2.75-1.23v-3.06a6.64 6.64 0 0 1 5.7 3.06 5.85 5.85 0 0 1 1.23 3.3v11.57c0 2.6-1.16 4.6-3.48 5.98a6.94 6.94 0 0 1-3.45 1.06Zm9.77-.18h3.06V12.4h-3.06V37Zm4.81-11h3.8c3.07-.03 5-1.2 5.77-3.52.3-.94.46-2.05.46-3.34 0-4.29-1.94-6.54-5.8-6.75H122.61v2.95h3.31c2.37.05 3.56 1.32 3.59 3.8-.05 2.56-1.24 3.84-3.56 3.87h-3.33V26ZM2.9 58.58l-2.55-4.1h.96l2.3 3.78h1.6v-3.78h.92v3.78h1.6l2.29-3.78h.97l-2.55 4.1L11.3 63h-.97l-2.48-4H6.13v4h-.92v-4H3.49l-2.48 4H.04l2.85-4.42Zm11.8 3.16 5.28-7.26h.7V63h-.84v-7.14L14.64 63h-.76v-8.52h.82v7.26Zm11.51-5c-.1 1.12-.22 2.09-.37 2.89-.14.8-.33 1.45-.55 1.97-.22.5-.48.87-.8 1.11-.3.23-.66.35-1.07.35l-.15-.8c.16-.01.31-.04.46-.1.15-.06.3-.16.43-.3.14-.15.26-.36.38-.61.12-.27.24-.6.34-1.01a30.48 30.48 0 0 0 .5-3.58l.18-2.18h4.34V63h-.83v-7.78h-2.74l-.12 1.52Zm10.75 6.32a3.7 3.7 0 0 1-2.9-1.33 4.5 4.5 0 0 1-1.1-2.99 4.5 4.5 0 0 1 1.15-3.01c.36-.4.79-.72 1.27-.95a3.54 3.54 0 0 1 1.59-.36c.6 0 1.13.13 1.62.38.5.25.91.58 1.26.99a4.5 4.5 0 0 1 1.1 2.96 4.4 4.4 0 0 1-1.15 3.01c-.35.4-.77.71-1.26.95-.49.23-1.02.35-1.58.35Zm-3.16-4.32a4.02 4.02 0 0 0 .88 2.48 2.83 2.83 0 0 0 2.28 1.08c.48 0 .91-.1 1.3-.3.4-.22.73-.49 1-.82a3.81 3.81 0 0 0-.04-4.9 3.15 3.15 0 0 0-1-.8c-.38-.2-.8-.3-1.26-.3a3.05 3.05 0 0 0-2.3 1.12 3.87 3.87 0 0 0-.86 2.44Zm15.46-6.73c-.02.38-.18.69-.5.92-.3.23-.72.34-1.27.34-.54 0-.97-.11-1.28-.34-.3-.23-.47-.54-.48-.92h.51c0 .1.04.2.1.3.06.1.15.18.26.25.12.07.25.13.4.18.15.04.32.06.5.06.35 0 .63-.07.86-.22a.81.81 0 0 0 .4-.57h.5Zm-4.44 9.73 5.28-7.26h.7V63h-.85v-7.14L44.75 63H44v-8.52h.83v7.26Zm14.91-3.48h1.3l2.78-3.78h.96l-2.99 4.1 3.3 4.42h-.96l-3.02-4h-1.37v4h-.83v-8.52h.83v3.78Zm10.92 4.8a3.7 3.7 0 0 1-2.89-1.33 4.5 4.5 0 0 1-1.1-2.99 4.5 4.5 0 0 1 1.15-3.01c.36-.4.78-.72 1.27-.95a3.54 3.54 0 0 1 1.59-.36c.59 0 1.13.13 1.62.38.5.25.91.58 1.26.99a4.5 4.5 0 0 1 1.1 2.96c0 .57-.1 1.11-.31 1.63a4.12 4.12 0 0 1-2.1 2.33c-.49.23-1.02.35-1.59.35Zm-3.15-4.32a4.02 4.02 0 0 0 .87 2.48 2.83 2.83 0 0 0 2.28 1.08c.48 0 .92-.1 1.31-.3.4-.22.73-.49 1-.82.27-.34.48-.72.62-1.14a3.81 3.81 0 0 0-.66-3.77 3.15 3.15 0 0 0-1-.78c-.38-.2-.8-.3-1.27-.3-.48 0-.91.1-1.3.31-.4.2-.73.47-1 .8a3.87 3.87 0 0 0-.85 2.44ZM85.22 63v-7l-3.1 5.42h-.5L78.52 56v7h-.85v-8.52h.87l3.32 5.83 3.35-5.83h.85V63h-.84Zm4.46-8.52h6.58V63h-.84v-7.78h-4.9V63h-.84v-8.52Zm12.1 2.26c-.09 1.12-.21 2.09-.36 2.89-.15.8-.33 1.45-.56 1.97-.21.5-.48.87-.79 1.11-.3.23-.66.35-1.08.35l-.14-.8c.16-.01.3-.04.45-.1.16-.06.3-.16.44-.3.13-.15.26-.36.38-.61.12-.27.23-.6.33-1.01a30.48 30.48 0 0 0 .5-3.58l.19-2.18h4.33V63h-.83v-7.78h-2.73l-.12 1.52Zm13.04 5.52V63h-5.72v-8.52h5.62v.74h-4.78v3.08h4.16v.7h-4.16v3.26h4.88Zm3.87-4h1.3l2.78-3.78h.96l-2.99 4.1 3.3 4.42h-.96l-3.02-4h-1.37v4h-.83v-8.52h.83v3.78Zm6.92.42a4.6 4.6 0 0 1 1.05-2.9 3.96 3.96 0 0 1 4.94-.83c.54.34.94.79 1.2 1.34l-.67.41a2.65 2.65 0 0 0-1.82-1.43 3.1 3.1 0 0 0-2.06.23 3.19 3.19 0 0 0-1.6 1.96 4.07 4.07 0 0 0 .04 2.62 3.45 3.45 0 0 0 1.68 1.94c.39.2.81.3 1.27.3a3.03 3.03 0 0 0 2.12-.86c.2-.2.37-.45.5-.73l.7.36c-.13.32-.33.6-.57.85a3.9 3.9 0 0 1-1.8 1c-.34.09-.67.13-1 .13a3.4 3.4 0 0 1-1.6-.38 4.26 4.26 0 0 1-2.1-2.4 4.67 4.67 0 0 1-.28-1.61Z" fill="#fff"/></svg>